# Created by FreeCAD <https://www.freecad.org>
v -25.000000 25.000000 0.000000 204 204 204
v -25.000000 -25.000000 0.000000 204 204 204
v -25.000000 25.000000 10.000000 204 204 204
v -25.000000 -25.000000 10.000000 204 204 204
v -15.000000 25.000000 0.000000 204 204 204
v -15.000000 25.000000 10.000000 204 204 204
v 25.000000 -25.000000 0.000000 204 204 204
v 25.000000 -25.000000 10.000000 204 204 204
v -15.000000 -5.000000 0.000000 204 204 204
v 15.000000 -5.000000 0.000000 204 204 204
v 15.000000 25.000000 0.000000 204 204 204
v 25.000000 25.000000 0.000000 204 204 204
v -15.000000 -5.000000 10.000000 204 204 204
v 15.000000 -5.000000 10.000000 204 204 204
v 25.000000 25.000000 10.000000 204 204 204
v 15.000000 25.000000 10.000000 204 204 204
vn -1.000000 0.000000 0.000000
vn -1.000000 -0.000000 0.000000
vn 0.000000 1.000000 -0.000000
vn 0.000000 1.000000 0.000000
vn 0.000000 -1.000000 0.000000
vn 0.000000 -1.000000 0.000000
vn 0.000000 0.000000 -1.000000
vn 0.000000 0.000000 -1.000000
vn 0.000000 0.000000 -1.000000
vn 0.000000 -0.000000 -1.000000
vn 0.000000 0.000000 -1.000000
vn 0.000000 0.000000 -1.000000
vn 0.000000 0.000000 1.000000
vn 0.000000 0.000000 1.000000
vn 0.000000 0.000000 1.000000
vn 0.000000 0.000000 1.000000
vn 0.000000 0.000000 1.000000
vn 0.000000 0.000000 1.000000
vn 1.000000 0.000000 0.000000
vn 1.000000 0.000000 0.000000
vn 1.000000 0.000000 0.000000
vn 1.000000 -0.000000 0.000000
vn -0.000000 1.000000 0.000000
vn 0.000000 1.000000 0.000000
vn -1.000000 0.000000 0.000000
vn -1.000000 0.000000 0.000000
vn 0.000000 1.000000 -0.000000
vn 0.000000 1.000000 0.000000
f 1//1 2//1 3//1
f 3//2 2//2 4//2
f 5//3 1//3 6//3
f 6//4 1//4 3//4
f 2//5 7//5 4//5
f 4//6 7//6 8//6
f 2//7 1//7 9//7
f 1//8 5//8 9//8
f 2//9 10//9 7//9
f 9//10 10//10 2//10
f 11//11 12//11 10//11
f 10//12 12//12 7//12
f 3//13 4//13 13//13
f 6//14 3//14 13//14
f 14//15 4//15 8//15
f 14//16 13//16 4//16
f 15//17 16//17 14//17
f 15//18 14//18 8//18
f 6//19 9//19 5//19
f 6//20 13//20 9//20
f 7//21 12//21 8//21
f 8//22 12//22 15//22
f 13//23 14//23 9//23
f 9//24 14//24 10//24
f 14//25 16//25 10//25
f 10//26 16//26 11//26
f 12//27 11//27 15//27
f 15//28 11//28 16//28
